# xmcd
#
# Track frame offsets: 
#        150
#        7503
#        17113
#        28037
#        42813
#        55584
#        69093
#        79967
#        96809
#        112599
#        121330
#        131345
#        147009
#        160218
#        180306
#        190342
#        200425
#        217791
#        234256
#        248423
#
# Disc length: 3413 seconds
#
# Revision: 0
# Processed by: cddbd v1.5.2PL0 Copyright (c) Steve Scherf et al.
# Submitted via: ExactAudioCopy v0.99pb4
#
DISCID=e50d5314
DTITLE=Marksmen Quartet, The - Mountain Memories
DYEAR=2009
DGENRE=Bluegrass
TTITLE0=O Why Not Tonight
TTITLE1=There is Power In The Blood
TTITLE2=Holy Mana
TTITLE3=Love Letters In The Sand
TTITLE4=The Sun Didn't Shine
TTITLE5=The Gospel According To John
TTITLE6=An Old Account Settled
TTITLE7='Neath The Old Olive Tree
TTITLE8=What A Friend
TTITLE9=Nothing But The Blood
TTITLE10=Came Out Of The Wilderness
TTITLE11=Take My Hand Precious Lord
TTITLE12=In The Garden
TTITLE13=Precious Lord
TTITLE14=Just As I Am
TTITLE15=When We All Get To Heaven
TTITLE16=Just A Rose Will Do
TTITLE17=Angel Band
TTITLE18=I'm On My Way
TTITLE19=Kneel At The Cross
EXTD=
EXTT0=
EXTT1=
EXTT2=
EXTT3=
EXTT4=
EXTT5=
EXTT6=
EXTT7=
EXTT8=
EXTT9=
EXTT10=
EXTT11=
EXTT12=
EXTT13=
EXTT14=
EXTT15=
EXTT16=
EXTT17=
EXTT18=
EXTT19=
PLAYORDER=
